<mxfile host="app.diagrams.net" agent="Mozilla/5.0 (Macintosh; Intel Mac OS X 10_15_7) AppleWebKit/537.36 (KHTML, like Gecko) Chrome/131.0.0.0 Safari/537.36" version="26.0.1">
  <diagram name="Page-1" id="7Njitv3gIY8qp95t7p3A">
    <mxGraphModel dx="1050" dy="1674" grid="1" gridSize="10" guides="1" tooltips="1" connect="1" arrows="1" fold="1" page="1" pageScale="1" pageWidth="850" pageHeight="1100" math="0" shadow="0">
      <root>
        <mxCell id="0" />
        <mxCell id="1" parent="0" />
        <mxCell id="KBVGXDAEyFLb97ocKC5W-30" value="" style="rounded=0;whiteSpace=wrap;html=1;fillColor=none;" vertex="1" parent="1">
          <mxGeometry x="160" y="-120" width="540" height="360" as="geometry" />
        </mxCell>
        <mxCell id="KBVGXDAEyFLb97ocKC5W-16" value="&lt;font style=&quot;font-size: 24px; font-weight: normal;&quot;&gt;JNI&lt;/font&gt;" style="swimlane;whiteSpace=wrap;html=1;startSize=40;fontFamily=Verdana;" vertex="1" parent="1">
          <mxGeometry x="215" y="390" width="420" height="100" as="geometry" />
        </mxCell>
        <mxCell id="KBVGXDAEyFLb97ocKC5W-17" value="Java virtual machine implementation" style="text;html=1;align=center;verticalAlign=middle;resizable=0;points=[];autosize=1;strokeColor=none;fillColor=none;fontFamily=Verdana;fontSize=20;" vertex="1" parent="KBVGXDAEyFLb97ocKC5W-16">
          <mxGeometry x="15" y="50" width="390" height="40" as="geometry" />
        </mxCell>
        <mxCell id="KBVGXDAEyFLb97ocKC5W-39" style="edgeStyle=orthogonalEdgeStyle;rounded=0;orthogonalLoop=1;jettySize=auto;html=1;exitX=0.25;exitY=0;exitDx=0;exitDy=0;entryX=0.25;entryY=1;entryDx=0;entryDy=0;strokeWidth=3;" edge="1" parent="1" source="KBVGXDAEyFLb97ocKC5W-19" target="KBVGXDAEyFLb97ocKC5W-16">
          <mxGeometry relative="1" as="geometry" />
        </mxCell>
        <mxCell id="KBVGXDAEyFLb97ocKC5W-19" value="&lt;font style=&quot;font-size: 24px; font-weight: normal;&quot;&gt;Unreal Engine&lt;/font&gt;" style="swimlane;whiteSpace=wrap;html=1;startSize=40;fontFamily=Verdana;" vertex="1" parent="1">
          <mxGeometry x="215" y="580" width="420" height="100" as="geometry" />
        </mxCell>
        <mxCell id="KBVGXDAEyFLb97ocKC5W-20" value="Native application (C++)" style="text;html=1;align=center;verticalAlign=middle;resizable=0;points=[];autosize=1;strokeColor=none;fillColor=none;fontFamily=Verdana;fontSize=20;" vertex="1" parent="KBVGXDAEyFLb97ocKC5W-19">
          <mxGeometry x="75" y="50" width="270" height="40" as="geometry" />
        </mxCell>
        <mxCell id="KBVGXDAEyFLb97ocKC5W-28" value="" style="group" vertex="1" connectable="0" parent="1">
          <mxGeometry x="208" y="160" width="435" height="50" as="geometry" />
        </mxCell>
        <mxCell id="KBVGXDAEyFLb97ocKC5W-5" value="UnrealBridge.java" style="rounded=0;whiteSpace=wrap;html=1;fontFamily=Verdana;fontSize=20;" vertex="1" parent="KBVGXDAEyFLb97ocKC5W-28">
          <mxGeometry x="235" width="200" height="50" as="geometry" />
        </mxCell>
        <mxCell id="KBVGXDAEyFLb97ocKC5W-26" value="GameActivity.java" style="rounded=0;whiteSpace=wrap;html=1;fontFamily=Verdana;fontSize=20;" vertex="1" parent="KBVGXDAEyFLb97ocKC5W-28">
          <mxGeometry width="210" height="50" as="geometry" />
        </mxCell>
        <mxCell id="KBVGXDAEyFLb97ocKC5W-29" value="" style="group" vertex="1" connectable="0" parent="1">
          <mxGeometry x="230" y="-90" width="400" height="190" as="geometry" />
        </mxCell>
        <mxCell id="KBVGXDAEyFLb97ocKC5W-2" value="" style="rounded=1;whiteSpace=wrap;html=1;fillColor=none;" vertex="1" parent="KBVGXDAEyFLb97ocKC5W-29">
          <mxGeometry x="35" y="30" width="330" height="160" as="geometry" />
        </mxCell>
        <mxCell id="KBVGXDAEyFLb97ocKC5W-1" value="&lt;font face=&quot;Verdana&quot; style=&quot;font-size: 20px;&quot;&gt;line-sdk-android&lt;/font&gt;" style="rounded=0;whiteSpace=wrap;html=1;fillColor=#d5e8d4;strokeColor=#82b366;" vertex="1" parent="KBVGXDAEyFLb97ocKC5W-29">
          <mxGeometry x="105" y="50" width="190" height="40" as="geometry" />
        </mxCell>
        <mxCell id="KBVGXDAEyFLb97ocKC5W-3" value="&lt;span style=&quot;font-size: 20px;&quot;&gt;&lt;font face=&quot;Verdana&quot;&gt;LineSdkWrapper.kt&lt;/font&gt;&lt;/span&gt;" style="text;html=1;align=center;verticalAlign=middle;whiteSpace=wrap;rounded=0;" vertex="1" parent="KBVGXDAEyFLb97ocKC5W-29">
          <mxGeometry x="170" y="140" width="60" height="30" as="geometry" />
        </mxCell>
        <mxCell id="KBVGXDAEyFLb97ocKC5W-8" value="" style="endArrow=classic;startArrow=classic;html=1;rounded=0;entryX=0.5;entryY=1;entryDx=0;entryDy=0;exitX=0.5;exitY=0;exitDx=0;exitDy=0;strokeWidth=2;" edge="1" parent="KBVGXDAEyFLb97ocKC5W-29" source="KBVGXDAEyFLb97ocKC5W-3" target="KBVGXDAEyFLb97ocKC5W-1">
          <mxGeometry width="50" height="50" relative="1" as="geometry">
            <mxPoint x="155" y="160" as="sourcePoint" />
            <mxPoint x="205" y="110" as="targetPoint" />
          </mxGeometry>
        </mxCell>
        <mxCell id="KBVGXDAEyFLb97ocKC5W-10" value="&lt;font&gt;linesdk-android-unreal-wrapper&lt;/font&gt;" style="text;html=1;align=center;verticalAlign=middle;whiteSpace=wrap;rounded=0;fontFamily=Verdana;fontSize=20;" vertex="1" parent="KBVGXDAEyFLb97ocKC5W-29">
          <mxGeometry width="400" height="30" as="geometry" />
        </mxCell>
        <mxCell id="KBVGXDAEyFLb97ocKC5W-23" style="edgeStyle=orthogonalEdgeStyle;rounded=0;orthogonalLoop=1;jettySize=auto;html=1;exitX=0.5;exitY=1;exitDx=0;exitDy=0;" edge="1" parent="KBVGXDAEyFLb97ocKC5W-29" source="KBVGXDAEyFLb97ocKC5W-2" target="KBVGXDAEyFLb97ocKC5W-2">
          <mxGeometry relative="1" as="geometry" />
        </mxCell>
        <mxCell id="KBVGXDAEyFLb97ocKC5W-32" value="" style="endArrow=classic;html=1;rounded=0;exitX=0.75;exitY=1;exitDx=0;exitDy=0;entryX=0.5;entryY=0;entryDx=0;entryDy=0;strokeWidth=3;" edge="1" parent="1" source="KBVGXDAEyFLb97ocKC5W-3" target="KBVGXDAEyFLb97ocKC5W-5">
          <mxGeometry width="50" height="50" relative="1" as="geometry">
            <mxPoint x="230" y="330" as="sourcePoint" />
            <mxPoint x="280" y="280" as="targetPoint" />
          </mxGeometry>
        </mxCell>
        <mxCell id="KBVGXDAEyFLb97ocKC5W-33" value="" style="endArrow=classic;html=1;rounded=0;exitX=0.5;exitY=0;exitDx=0;exitDy=0;entryX=0.25;entryY=1;entryDx=0;entryDy=0;strokeWidth=3;" edge="1" parent="1" source="KBVGXDAEyFLb97ocKC5W-26" target="KBVGXDAEyFLb97ocKC5W-3">
          <mxGeometry width="50" height="50" relative="1" as="geometry">
            <mxPoint x="220" y="330" as="sourcePoint" />
            <mxPoint x="270" y="280" as="targetPoint" />
          </mxGeometry>
        </mxCell>
        <mxCell id="KBVGXDAEyFLb97ocKC5W-34" value="" style="endArrow=classic;html=1;rounded=0;exitX=0.25;exitY=0;exitDx=0;exitDy=0;entryX=0.5;entryY=1;entryDx=0;entryDy=0;strokeWidth=3;" edge="1" parent="1" source="KBVGXDAEyFLb97ocKC5W-16" target="KBVGXDAEyFLb97ocKC5W-26">
          <mxGeometry width="50" height="50" relative="1" as="geometry">
            <mxPoint x="320" y="370" as="sourcePoint" />
            <mxPoint x="370" y="320" as="targetPoint" />
          </mxGeometry>
        </mxCell>
        <mxCell id="KBVGXDAEyFLb97ocKC5W-38" value="" style="endArrow=classic;html=1;rounded=0;exitX=0.5;exitY=1;exitDx=0;exitDy=0;entryX=0.75;entryY=0;entryDx=0;entryDy=0;strokeWidth=3;" edge="1" parent="1" source="KBVGXDAEyFLb97ocKC5W-5" target="KBVGXDAEyFLb97ocKC5W-16">
          <mxGeometry width="50" height="50" relative="1" as="geometry">
            <mxPoint x="450" y="330" as="sourcePoint" />
            <mxPoint x="500" y="280" as="targetPoint" />
          </mxGeometry>
        </mxCell>
        <mxCell id="KBVGXDAEyFLb97ocKC5W-40" value="" style="endArrow=classic;html=1;rounded=0;exitX=0.75;exitY=1;exitDx=0;exitDy=0;entryX=0.75;entryY=0;entryDx=0;entryDy=0;strokeWidth=3;" edge="1" parent="1" source="KBVGXDAEyFLb97ocKC5W-16" target="KBVGXDAEyFLb97ocKC5W-19">
          <mxGeometry width="50" height="50" relative="1" as="geometry">
            <mxPoint x="720" y="520" as="sourcePoint" />
            <mxPoint x="770" y="470" as="targetPoint" />
          </mxGeometry>
        </mxCell>
        <mxCell id="KBVGXDAEyFLb97ocKC5W-41" value="&lt;font style=&quot;font-size: 25px;&quot;&gt;Java application and library&lt;/font&gt;" style="text;html=1;align=center;verticalAlign=middle;whiteSpace=wrap;rounded=0;fontFamily=Verdana;" vertex="1" parent="1">
          <mxGeometry x="160" y="-150" width="355" height="30" as="geometry" />
        </mxCell>
      </root>
    </mxGraphModel>
  </diagram>
</mxfile>
